<svg width="201" height="32" viewBox="0 0 201 32" fill="none" xmlns="http://www.w3.org/2000/svg">
<g clip-path="url(#clip0_376_4719)">
<path d="M22.7691 15.4415C23.2069 15.2449 26.3167 13.6989 26.3167 8.79302C26.3167 4.22669 22.921 -7.62939e-05 15.0036 -7.62939e-05H1.4119C0.29489 -7.62939e-05 0 0.536088 0 1.41182V30.5881C0 31.4639 0.29489 32 1.4119 32H15.6828C22.4295 32 27.2371 28.8456 27.2371 22.6797C27.2371 17.4342 23.1622 15.5844 22.7691 15.4415ZM15.7811 25.1014H7.62245V6.84496H15.0036C17.5325 6.84496 19.0338 7.38112 19.0338 9.57046C19.0338 11.4649 17.8185 12.4836 15.0036 12.4836H14.3692C13.2522 12.4836 12.9662 13.0198 12.9662 13.8866V17.5772C12.9662 18.4529 13.2522 18.9891 14.3692 18.9891H15.4862C17.8185 18.9891 19.5163 19.6682 19.5163 21.9469C19.5163 24.1363 18.1581 25.1014 15.7811 25.1014ZM57.2443 0.0535391H52.4367C51.561 0.0535391 51.0338 0.339494 51.0338 1.4565V21.1695C51.0338 24.2346 48.9874 25.3677 45.7883 25.3677C42.5803 25.3677 40.5875 24.2346 40.5875 21.1695V1.4565C40.5875 0.339494 40.0603 0.0535391 39.1846 0.0535391H34.377C33.5013 0.0535391 32.9651 0.339494 32.9651 1.4565V22.2418C32.9651 29.8643 40.0067 32 45.7883 32C51.561 32 58.6562 29.8643 58.6562 22.2418V1.4565C58.6562 0.339494 58.1201 0.0535391 57.2443 0.0535391ZM79.3343 25.3516H76.2781V6.80028H79.1913C80.3083 6.80028 80.6032 6.26411 80.6032 5.38838V1.4565C80.6032 0.589705 80.3083 0.05354 79.1913 0.05354H65.6978C64.5808 0.05354 64.286 0.589705 64.286 1.4565V5.38838C64.286 6.26411 64.5808 6.80028 65.6978 6.80028H68.6557V25.3516H65.5996C64.4826 25.3516 64.1877 25.8788 64.1877 26.7545V30.5881C64.1877 31.4639 64.4826 32 65.5996 32H79.3343C80.4513 32 80.7462 31.4639 80.7462 30.5881V26.7545C80.7462 25.8788 80.4513 25.3516 79.3343 25.3516ZM108.618 25.1997H94.6328V1.4565C94.6328 0.339495 94.0966 0.05354 93.2209 0.05354H88.4133C87.5465 0.05354 87.0103 0.339495 87.0103 1.4565V30.5881C87.0103 31.4639 87.3052 32 88.4133 32H108.618C109.735 32 110.021 31.4639 110.021 30.5881V26.6116C110.021 25.7358 109.735 25.1997 108.618 25.1997ZM127.553 0.05354H116.678C115.561 0.05354 115.266 0.589705 115.266 1.4565V30.5881C115.266 31.4639 115.561 32 116.678 32H127.553C133.326 32 140.609 28.7026 140.609 21.0712V10.9734C140.609 3.40457 133.326 0.05354 127.553 0.05354ZM132.986 20.3921C132.986 23.5018 130.752 25.2533 127.553 25.2533H122.889V6.80028H127.553C130.752 6.80028 132.986 8.59643 132.986 11.6526V20.3921ZM169.991 25.1997H154.495V18.7925H167.515C168.632 18.7925 168.918 18.2563 168.918 17.3895V13.6006C168.918 12.7249 168.632 12.1887 167.515 12.1887H154.495V6.89858H169.159C170.276 6.89858 170.571 6.36241 170.571 5.48668V1.4565C170.571 0.589705 170.276 0.05354 169.159 0.05354H148.24C147.123 0.05354 146.828 0.589705 146.828 1.4565V30.5881C146.828 31.4639 147.123 32 148.24 32H169.991C171.108 32 171.393 31.4639 171.393 30.5881V26.6116C171.393 25.7358 171.108 25.1997 169.991 25.1997ZM198.881 25.1997H184.896V1.4565C184.896 0.339495 184.36 0.05354 183.484 0.05354H178.676C177.81 0.05354 177.273 0.339495 177.273 1.4565V30.5881C177.273 31.4639 177.559 32 178.676 32H198.881C199.998 32 200.284 31.4639 200.284 30.5881V26.6116C200.284 25.7358 199.998 25.1997 198.881 25.1997Z" fill="black"/>
</g>
<defs>
<clipPath id="clip0_376_4719">
<rect width="200.284" height="32" fill="white"/>
</clipPath>
</defs>
</svg>
