<svg width="126" height="20" viewBox="0 0 126 20" fill="none" xmlns="http://www.w3.org/2000/svg">
<g clip-path="url(#clip0_629_3038)">
<path d="M14.7839 9.65089C15.0576 9.52802 17.0011 8.56181 17.0011 5.49561C17.0011 2.64165 14.8788 -7.24792e-05 9.93049 -7.24792e-05H1.43566C0.737529 -7.24792e-05 0.553223 0.33503 0.553223 0.882365V19.1175C0.553223 19.6649 0.737529 20 1.43566 20H10.355C14.5717 20 17.5764 18.0285 17.5764 14.1748C17.5764 10.8964 15.0296 9.74025 14.7839 9.65089ZM10.4164 15.6883H5.31725V4.27807H9.93049C11.5111 4.27807 12.4493 4.61318 12.4493 5.98151C12.4493 7.16554 11.6898 7.80224 9.93049 7.80224H9.53395C8.83583 7.80224 8.6571 8.13734 8.6571 8.67909V10.9857C8.6571 11.5331 8.83583 11.8682 9.53395 11.8682H10.2321C11.6898 11.8682 12.7509 12.2926 12.7509 13.7168C12.7509 15.0851 11.902 15.6883 10.4164 15.6883ZM36.3309 0.0334371H33.3262C32.7789 0.0334371 32.4493 0.212159 32.4493 0.91029V13.2309C32.4493 15.1466 31.1704 15.8548 29.1709 15.8548C27.1659 15.8548 25.9204 15.1466 25.9204 13.2309V0.91029C25.9204 0.212159 25.5909 0.0334371 25.0436 0.0334371H22.0388C21.4915 0.0334371 21.1564 0.212159 21.1564 0.91029V13.9011C21.1564 18.6652 25.5574 20 29.1709 20C32.7789 20 37.2134 18.6652 37.2134 13.9011V0.91029C37.2134 0.212159 36.8783 0.0334371 36.3309 0.0334371ZM50.1371 15.8447H48.2271V4.25015H50.0478C50.7459 4.25015 50.9302 3.91505 50.9302 3.36771V0.91029C50.9302 0.368541 50.7459 0.0334377 50.0478 0.0334377H41.6144C40.9162 0.0334377 40.7319 0.368541 40.7319 0.91029V3.36771C40.7319 3.91505 40.9162 4.25015 41.6144 4.25015H43.463V15.8447H41.5529C40.8548 15.8447 40.6705 16.1742 40.6705 16.7216V19.1175C40.6705 19.6649 40.8548 20 41.5529 20H50.1371C50.8353 20 51.0196 19.6649 51.0196 19.1175V16.7216C51.0196 16.1742 50.8353 15.8447 50.1371 15.8447ZM68.4393 15.7498H59.6987V0.91029C59.6987 0.212159 59.3636 0.0334377 58.8163 0.0334377H55.8115C55.2698 0.0334377 54.9347 0.212159 54.9347 0.91029V19.1175C54.9347 19.6649 55.119 20 55.8115 20H68.4393C69.1374 20 69.3161 19.6649 69.3161 19.1175V16.6322C69.3161 16.0849 69.1374 15.7498 68.4393 15.7498ZM80.274 0.0334377H73.477C72.7789 0.0334377 72.5945 0.368541 72.5945 0.91029V19.1175C72.5945 19.6649 72.7789 20 73.477 20H80.274C83.8819 20 88.4337 17.9391 88.4337 13.1695V6.85837C88.4337 2.12783 83.8819 0.0334377 80.274 0.0334377ZM83.6697 12.745C83.6697 14.6886 82.2734 15.7833 80.274 15.7833H77.3586V4.25015H80.274C82.2734 4.25015 83.6697 5.37274 83.6697 7.28283V12.745ZM106.797 15.7498H97.1129V11.7453H105.25C105.948 11.7453 106.127 11.4102 106.127 10.8684V8.50037C106.127 7.95304 105.948 7.61793 105.25 7.61793H97.1129V4.31158H106.278C106.976 4.31158 107.16 3.97648 107.16 3.42915V0.91029C107.16 0.368541 106.976 0.0334377 106.278 0.0334377H93.2033C92.5052 0.0334377 92.3209 0.368541 92.3209 0.91029V19.1175C92.3209 19.6649 92.5052 20 93.2033 20H106.797C107.495 20 107.674 19.6649 107.674 19.1175V16.6322C107.674 16.0849 107.495 15.7498 106.797 15.7498ZM124.854 15.7498H116.113V0.91029C116.113 0.212159 115.778 0.0334377 115.231 0.0334377H112.226C111.684 0.0334377 111.349 0.212159 111.349 0.91029V19.1175C111.349 19.6649 111.528 20 112.226 20H124.854C125.552 20 125.731 19.6649 125.731 19.1175V16.6322C125.731 16.0849 125.552 15.7498 124.854 15.7498Z" fill="black"/>
</g>
<defs>
<clipPath id="clip0_629_3038">
<rect width="125.177" height="20" fill="white" transform="translate(0.553223)"/>
</clipPath>
</defs>
</svg>
